<?xml version="1.0" encoding="UTF-8"?>
<!DOCTYPE svg PUBLIC "-//W3C//DTD SVG 1.1//EN" "http://www.w3.org/Graphics/SVG/1.1/DTD/svg11.dtd">
<svg xmlns="http://www.w3.org/2000/svg" version="1.1" width="512px" height="512px" style="shape-rendering:geometricPrecision; text-rendering:geometricPrecision; image-rendering:optimizeQuality; fill-rule:evenodd; clip-rule:evenodd" xmlns:xlink="http://www.w3.org/1999/xlink">
<g><path style="opacity:1" fill="#50f9da" d="M -0.5,-0.5 C 12.8333,-0.5 26.1667,-0.5 39.5,-0.5C 37.9674,3.87147 35.1341,7.2048 31,9.5C 30.6667,11.5 30.3333,13.5 30,15.5C 27.9592,14.5769 25.7925,14.2436 23.5,14.5C 22.4145,19.4302 19.5812,23.0968 15,25.5C 14.6667,27.5 14.3333,29.5 14,31.5C 11.9592,30.5769 9.7925,30.2436 7.5,30.5C 6.70391,35.2993 4.03724,38.6327 -0.5,40.5C -0.5,26.8333 -0.5,13.1667 -0.5,-0.5 Z"/></g>
<g><path style="opacity:1" fill="#4df7db" d="M 39.5,-0.5 C 57.5,-0.5 75.5,-0.5 93.5,-0.5C 68.5066,25.3267 43.0066,50.66 17,75.5C 15.5886,77.6504 14.7553,79.9837 14.5,82.5C 12.8008,82.3398 11.1341,82.5065 9.5,83C 7.83333,85.3333 6.16667,87.6667 4.5,90C 2.86586,90.4935 1.19919,90.6602 -0.5,90.5C -0.5,73.8333 -0.5,57.1667 -0.5,40.5C 4.03724,38.6327 6.70391,35.2993 7.5,30.5C 9.7925,30.2436 11.9592,30.5769 14,31.5C 14.3333,29.5 14.6667,27.5 15,25.5C 19.5812,23.0968 22.4145,19.4302 23.5,14.5C 25.7925,14.2436 27.9592,14.5769 30,15.5C 30.3333,13.5 30.6667,11.5 31,9.5C 35.1341,7.2048 37.9674,3.87147 39.5,-0.5 Z"/></g>
<g><path style="opacity:1" fill="#47f4db" d="M 93.5,-0.5 C 119.5,-0.5 145.5,-0.5 171.5,-0.5C 166.86,2.6414 163.027,6.6414 160,11.5C 159.692,10.6919 159.192,10.0253 158.5,9.5C 156.851,10.6477 155.351,11.981 154,13.5C 153.544,14.7441 154.044,15.5774 155.5,16C 136.606,34.7396 116.273,55.2396 94.5,77.5C 93.3112,78.4287 91.9778,78.762 90.5,78.5C 90.7616,81.9209 89.4283,82.9209 86.5,81.5C 84.8513,82.6477 83.3513,83.981 82,85.5C 81.5439,86.7441 82.0439,87.5774 83.5,88C 81.099,91.2691 78.099,93.4358 74.5,94.5C 74.8333,97.5 73.5,98.8333 70.5,98.5C 70.5,99.8333 70.5,101.167 70.5,102.5C 69.1667,102.5 67.8333,102.5 66.5,102.5C 66.8333,105.5 65.5,106.833 62.5,106.5C 62.33,107.822 62.6634,108.989 63.5,110C 61.8659,110.494 60.1992,110.66 58.5,110.5C 58.8333,113.5 57.5,114.833 54.5,114.5C 54.5,115.833 54.5,117.167 54.5,118.5C 53.1667,118.5 51.8333,118.5 50.5,118.5C 50.8333,121.5 49.5,122.833 46.5,122.5C 46.33,123.822 46.6634,124.989 47.5,126C 45.8659,126.494 44.1992,126.66 42.5,126.5C 42.8333,129.5 41.5,130.833 38.5,130.5C 38.5,131.833 38.5,133.167 38.5,134.5C 37.1667,134.5 35.8333,134.5 34.5,134.5C 34.8333,137.5 33.5,138.833 30.5,138.5C 30.33,139.822 30.6634,140.989 31.5,142C 29.8659,142.494 28.1992,142.66 26.5,142.5C 26.8333,145.5 25.5,146.833 22.5,146.5C 22.5,147.833 22.5,149.167 22.5,150.5C 21.1667,150.5 19.8333,150.5 18.5,150.5C 18.8333,153.5 17.5,154.833 14.5,154.5C 14.33,155.822 14.6634,156.989 15.5,158C 13.8659,158.494 12.1992,158.66 10.5,158.5C 10.8333,161.5 9.5,162.833 6.5,162.5C 6.5,163.833 6.5,165.167 6.5,166.5C 5.16667,166.5 3.83333,166.5 2.5,166.5C 2.91176,168.973 1.91176,170.306 -0.5,170.5C -0.5,143.833 -0.5,117.167 -0.5,90.5C 1.19919,90.6602 2.86586,90.4935 4.5,90C 6.16667,87.6667 7.83333,85.3333 9.5,83C 11.1341,82.5065 12.8008,82.3398 14.5,82.5C 14.7553,79.9837 15.5886,77.6504 17,75.5C 43.0066,50.66 68.5066,25.3267 93.5,-0.5 Z"/></g>
<g><path style="opacity:1" fill="#41efdc" d="M 171.5,-0.5 C 196.5,-0.5 221.5,-0.5 246.5,-0.5C 245.062,3.27357 242.395,5.60691 238.5,6.5C 238.762,7.97782 238.429,9.31116 237.5,10.5C 236.167,11.1667 235.167,12.1667 234.5,13.5C 233.311,14.4287 231.978,14.762 230.5,14.5C 229.5,18.8333 226.833,21.5 222.5,22.5C 221.5,26.8333 218.833,29.5 214.5,30.5C 213.5,34.8333 210.833,37.5 206.5,38.5C 205.5,42.8333 202.833,45.5 198.5,46.5C 197.5,50.8333 194.833,53.5 190.5,54.5C 189.5,58.8333 186.833,61.5 182.5,62.5C 181.5,66.8333 178.833,69.5 174.5,70.5C 173.5,74.8333 170.833,77.5 166.5,78.5C 165.5,82.8333 162.833,85.5 158.5,86.5C 157.5,90.8333 154.833,93.5 150.5,94.5C 149.5,98.8333 146.833,101.5 142.5,102.5C 141.5,106.833 138.833,109.5 134.5,110.5C 133.5,114.833 130.833,117.5 126.5,118.5C 125.5,122.833 122.833,125.5 118.5,126.5C 117.5,130.833 114.833,133.5 110.5,134.5C 108.936,140.72 104.936,143.386 98.5,142.5C 98.5,145.167 98.5,147.833 98.5,150.5C 97.1667,150.5 95.8333,150.5 94.5,150.5C 94.762,151.978 94.4287,153.311 93.5,154.5C 92.1667,155.167 91.1667,156.167 90.5,157.5C 89.3112,158.429 87.9778,158.762 86.5,158.5C 86.762,159.978 86.4287,161.311 85.5,162.5C 83.1322,163.369 81.6322,165.035 81,167.5C 80.586,167.043 80.086,166.709 79.5,166.5C 77.6919,170.649 74.6919,173.315 70.5,174.5C 69.5,178.833 66.8333,181.5 62.5,182.5C 61.5,186.833 58.8333,189.5 54.5,190.5C 53.5,194.833 50.8333,197.5 46.5,198.5C 45.5,202.833 42.8333,205.5 38.5,206.5C 37.5,210.833 34.8333,213.5 30.5,214.5C 29.5,218.833 26.8333,221.5 22.5,222.5C 21.5,226.833 18.8333,229.5 14.5,230.5C 14.6495,231.552 14.4828,232.552 14,233.5C 9.59681,236.781 5.76348,240.614 2.5,245C 1.55198,245.483 0.551975,245.649 -0.5,245.5C -0.5,220.5 -0.5,195.5 -0.5,170.5C 1.91176,170.306 2.91176,168.973 2.5,166.5C 3.83333,166.5 5.16667,166.5 6.5,166.5C 6.5,165.167 6.5,163.833 6.5,162.5C 9.5,162.833 10.8333,161.5 10.5,158.5C 12.1992,158.66 13.8659,158.494 15.5,158C 14.6634,156.989 14.33,155.822 14.5,154.5C 17.5,154.833 18.8333,153.5 18.5,150.5C 19.8333,150.5 21.1667,150.5 22.5,150.5C 22.5,149.167 22.5,147.833 22.5,146.5C 25.5,146.833 26.8333,145.5 26.5,142.5C 28.1992,142.66 29.8659,142.494 31.5,142C 30.6634,140.989 30.33,139.822 30.5,138.5C 33.5,138.833 34.8333,137.5 34.5,134.5C 35.8333,134.5 37.1667,134.5 38.5,134.5C 38.5,133.167 38.5,131.833 38.5,130.5C 41.5,130.833 42.8333,129.5 42.5,126.5C 44.1992,126.66 45.8659,126.494 47.5,126C 46.6634,124.989 46.33,123.822 46.5,122.5C 49.5,122.833 50.8333,121.5 50.5,118.5C 51.8333,118.5 53.1667,118.5 54.5,118.5C 54.5,117.167 54.5,115.833 54.5,114.5C 57.5,114.833 58.8333,113.5 58.5,110.5C 60.1992,110.66 61.8659,110.494 63.5,110C 62.6634,108.989 62.33,107.822 62.5,106.5C 65.5,106.833 66.8333,105.5 66.5,102.5C 67.8333,102.5 69.1667,102.5 70.5,102.5C 70.5,101.167 70.5,99.8333 70.5,98.5C 73.5,98.8333 74.8333,97.5 74.5,94.5C 78.099,93.4358 81.099,91.2691 83.5,88C 82.0439,87.5774 81.5439,86.7441 82,85.5C 83.3513,83.981 84.8513,82.6477 86.5,81.5C 89.4283,82.9209 90.7616,81.9209 90.5,78.5C 91.9778,78.762 93.3112,78.4287 94.5,77.5C 116.273,55.2396 136.606,34.7396 155.5,16C 154.044,15.5774 153.544,14.7441 154,13.5C 155.351,11.981 156.851,10.6477 158.5,9.5C 159.192,10.0253 159.692,10.6919 160,11.5C 163.027,6.6414 166.86,2.6414 171.5,-0.5 Z"/></g>
<g><path style="opacity:1" fill="#40eddd" d="M 246.5,-0.5 C 254.5,-0.5 262.5,-0.5 270.5,-0.5C 269.069,3.2656 266.402,5.59894 262.5,6.5C 262.762,7.97782 262.429,9.31116 261.5,10.5C 260.167,11.1667 259.167,12.1667 258.5,13.5C 257.311,14.4287 255.978,14.762 254.5,14.5C 254.649,15.552 254.483,16.552 254,17.5C 235.51,36.9561 216.677,56.1227 197.5,75C 195.715,77.2257 193.382,78.3924 190.5,78.5C 190.649,79.552 190.483,80.552 190,81.5C 188.287,82.8782 186.953,84.5448 186,86.5C 175.559,97.0284 164.893,107.362 154,117.5C 152.331,119.169 151.498,121.169 151.5,123.5C 148.45,122.923 146.45,124.09 145.5,127C 142.823,127.249 140.49,128.249 138.5,130C 132.41,136.38 125.077,140.714 116.5,143C 112.253,147.958 106.919,151.125 100.5,152.5C 99.2867,152.253 98.62,151.586 98.5,150.5C 98.5,147.833 98.5,145.167 98.5,142.5C 104.936,143.386 108.936,140.72 110.5,134.5C 114.833,133.5 117.5,130.833 118.5,126.5C 122.833,125.5 125.5,122.833 126.5,118.5C 130.833,117.5 133.5,114.833 134.5,110.5C 138.833,109.5 141.5,106.833 142.5,102.5C 146.833,101.5 149.5,98.8333 150.5,94.5C 154.833,93.5 157.5,90.8333 158.5,86.5C 162.833,85.5 165.5,82.8333 166.5,78.5C 170.833,77.5 173.5,74.8333 174.5,70.5C 178.833,69.5 181.5,66.8333 182.5,62.5C 186.833,61.5 189.5,58.8333 190.5,54.5C 194.833,53.5 197.5,50.8333 198.5,46.5C 202.833,45.5 205.5,42.8333 206.5,38.5C 210.833,37.5 213.5,34.8333 214.5,30.5C 218.833,29.5 221.5,26.8333 222.5,22.5C 226.833,21.5 229.5,18.8333 230.5,14.5C 231.978,14.762 233.311,14.4287 234.5,13.5C 235.167,12.1667 236.167,11.1667 237.5,10.5C 238.429,9.31116 238.762,7.97782 238.5,6.5C 242.395,5.60691 245.062,3.27357 246.5,-0.5 Z"/></g>
<g><path style="opacity:1" fill="#3debdc" d="M 270.5,-0.5 C 288.167,-0.5 305.833,-0.5 323.5,-0.5C 321.299,3.05399 318.299,5.38732 314.5,6.5C 314.833,9.5 313.5,10.8333 310.5,10.5C 310.5,11.8333 310.5,13.1667 310.5,14.5C 309.167,14.5 307.833,14.5 306.5,14.5C 306.833,17.5 305.5,18.8333 302.5,18.5C 302.5,19.8333 302.5,21.1667 302.5,22.5C 301.167,22.5 299.833,22.5 298.5,22.5C 298.833,25.5 297.5,26.8333 294.5,26.5C 294.5,27.8333 294.5,29.1667 294.5,30.5C 293.167,30.5 291.833,30.5 290.5,30.5C 290.833,33.5 289.5,34.8333 286.5,34.5C 286.5,35.8333 286.5,37.1667 286.5,38.5C 285.167,38.5 283.833,38.5 282.5,38.5C 282.833,41.5 281.5,42.8333 278.5,42.5C 278.5,43.8333 278.5,45.1667 278.5,46.5C 277.167,46.5 275.833,46.5 274.5,46.5C 274.833,49.5 273.5,50.8333 270.5,50.5C 270.5,51.8333 270.5,53.1667 270.5,54.5C 269.167,54.5 267.833,54.5 266.5,54.5C 266.833,57.5 265.5,58.8333 262.5,58.5C 259.898,64.4354 255.565,68.7687 249.5,71.5C 250.167,72.1667 250.833,72.8333 251.5,73.5C 235.188,76.557 234.855,80.057 250.5,84C 248.649,84.8372 246.816,85.6705 245,86.5C 243.738,84.6972 242.071,83.3639 240,82.5C 238.812,83.5634 238.312,84.8967 238.5,86.5C 236.833,86.5 235.167,86.5 233.5,86.5C 233.5,87.8333 233.5,89.1667 233.5,90.5C 227.652,90.8528 224.152,93.8528 223,99.5C 222.439,98.9781 221.772,98.6448 221,98.5C 219.56,100.369 217.893,102.035 216,103.5C 212.889,101.386 209.722,101.552 206.5,104C 208.26,106.483 210.427,106.983 213,105.5C 213.816,106.823 214.983,107.489 216.5,107.5C 181.225,128.811 145.558,149.645 109.5,170C 105.221,172.729 102.554,176.562 101.5,181.5C 100.849,182.091 100.182,182.757 99.5,183.5C 98.8933,183.376 98.56,183.043 98.5,182.5C 98.2172,181.711 97.7172,181.044 97,180.5C 96.0131,190.357 94.8464,200.19 93.5,210C 93.5085,211.707 93.8418,213.207 94.5,214.5C 94.5,214.833 94.5,215.167 94.5,215.5C 92.9642,217.025 91.9642,219.025 91.5,221.5C 89.2534,222.374 86.9201,222.708 84.5,222.5C 84.5,227.833 84.5,233.167 84.5,238.5C 82.8333,238.5 81.1667,238.5 79.5,238.5C 79.6859,246.495 76.0192,251.995 68.5,255C 47.9868,276.013 27.3201,296.846 6.5,317.5C 5.31116,318.429 3.97782,318.762 2.5,318.5C 2.91176,320.973 1.91176,322.306 -0.5,322.5C -0.5,296.833 -0.5,271.167 -0.5,245.5C 0.551975,245.649 1.55198,245.483 2.5,245C 5.76348,240.614 9.59681,236.781 14,233.5C 14.4828,232.552 14.6495,231.552 14.5,230.5C 18.8333,229.5 21.5,226.833 22.5,222.5C 26.8333,221.5 29.5,218.833 30.5,214.5C 34.8333,213.5 37.5,210.833 38.5,206.5C 42.8333,205.5 45.5,202.833 46.5,198.5C 50.8333,197.5 53.5,194.833 54.5,190.5C 58.8333,189.5 61.5,186.833 62.5,182.5C 66.8333,181.5 69.5,178.833 70.5,174.5C 74.6919,173.315 77.6919,170.649 79.5,166.5C 80.086,166.709 80.586,167.043 81,167.5C 81.6322,165.035 83.1322,163.369 85.5,162.5C 86.4287,161.311 86.762,159.978 86.5,158.5C 87.9778,158.762 89.3112,158.429 90.5,157.5C 91.1667,156.167 92.1667,155.167 93.5,154.5C 94.4287,153.311 94.762,151.978 94.5,150.5C 95.8333,150.5 97.1667,150.5 98.5,150.5C 98.62,151.586 99.2867,152.253 100.5,152.5C 106.919,151.125 112.253,147.958 116.5,143C 125.077,140.714 132.41,136.38 138.5,130C 140.49,128.249 142.823,127.249 145.5,127C 146.45,124.09 148.45,122.923 151.5,123.5C 151.498,121.169 152.331,119.169 154,117.5C 164.893,107.362 175.559,97.0284 186,86.5C 186.953,84.5448 188.287,82.8782 190,81.5C 190.483,80.552 190.649,79.552 190.5,78.5C 193.382,78.3924 195.715,77.2257 197.5,75C 216.677,56.1227 235.51,36.9561 254,17.5C 254.483,16.552 254.649,15.552 254.5,14.5C 255.978,14.762 257.311,14.4287 258.5,13.5C 259.167,12.1667 260.167,11.1667 261.5,10.5C 262.429,9.31116 262.762,7.97782 262.5,6.5C 266.402,5.59894 269.069,3.2656 270.5,-0.5 Z"/></g>
<g><path style="opacity:1" fill="#39e8de" d="M 323.5,-0.5 C 340.5,-0.5 357.5,-0.5 374.5,-0.5C 373.391,3.6085 370.725,5.94183 366.5,6.5C 365.833,11.1667 363.167,13.8333 358.5,14.5C 357.833,19.1667 355.167,21.8333 350.5,22.5C 349.833,27.1667 347.167,29.8333 342.5,30.5C 342.719,31.675 342.386,32.675 341.5,33.5C 339.344,35.5734 337.011,37.2401 334.5,38.5C 334.719,39.675 334.386,40.675 333.5,41.5C 319.255,53.745 305.922,67.0784 293.5,81.5C 291.833,82.1667 290.167,82.8333 288.5,83.5C 285.34,81.9733 282.007,81.3067 278.5,81.5C 278.5,80.1667 278.5,78.8333 278.5,77.5C 274.346,77.6307 270.346,78.464 266.5,80C 267.563,81.1882 268.897,81.6882 270.5,81.5C 270.799,83.604 270.466,85.604 269.5,87.5C 265.89,85.6705 262.223,85.0039 258.5,85.5C 258.709,86.086 259.043,86.586 259.5,87C 257.292,87.1909 255.292,87.6909 253.5,88.5C 241.046,94.5605 228.713,100.894 216.5,107.5C 214.983,107.489 213.816,106.823 213,105.5C 210.427,106.983 208.26,106.483 206.5,104C 209.722,101.552 212.889,101.386 216,103.5C 217.893,102.035 219.56,100.369 221,98.5C 221.772,98.6448 222.439,98.9781 223,99.5C 224.152,93.8528 227.652,90.8528 233.5,90.5C 233.5,89.1667 233.5,87.8333 233.5,86.5C 235.167,86.5 236.833,86.5 238.5,86.5C 238.312,84.8967 238.812,83.5634 240,82.5C 242.071,83.3639 243.738,84.6972 245,86.5C 246.816,85.6705 248.649,84.8372 250.5,84C 234.855,80.057 235.188,76.557 251.5,73.5C 250.833,72.8333 250.167,72.1667 249.5,71.5C 255.565,68.7687 259.898,64.4354 262.5,58.5C 265.5,58.8333 266.833,57.5 266.5,54.5C 267.833,54.5 269.167,54.5 270.5,54.5C 270.5,53.1667 270.5,51.8333 270.5,50.5C 273.5,50.8333 274.833,49.5 274.5,46.5C 275.833,46.5 277.167,46.5 278.5,46.5C 278.5,45.1667 278.5,43.8333 278.5,42.5C 281.5,42.8333 282.833,41.5 282.5,38.5C 283.833,38.5 285.167,38.5 286.5,38.5C 286.5,37.1667 286.5,35.8333 286.5,34.5C 289.5,34.8333 290.833,33.5 290.5,30.5C 291.833,30.5 293.167,30.5 294.5,30.5C 294.5,29.1667 294.5,27.8333 294.5,26.5C 297.5,26.8333 298.833,25.5 298.5,22.5C 299.833,22.5 301.167,22.5 302.5,22.5C 302.5,21.1667 302.5,19.8333 302.5,18.5C 305.5,18.8333 306.833,17.5 306.5,14.5C 307.833,14.5 309.167,14.5 310.5,14.5C 310.5,13.1667 310.5,11.8333 310.5,10.5C 313.5,10.8333 314.833,9.5 314.5,6.5C 318.299,5.38732 321.299,3.05399 323.5,-0.5 Z"/></g>
<g><path style="opacity:1" fill="#36e6dd" d="M 374.5,-0.5 C 387.167,-0.5 399.833,-0.5 412.5,-0.5C 383.869,29.9644 354.369,59.6311 324,88.5C 322.362,91.3041 320.529,93.9708 318.5,96.5C 315.572,97.4841 312.572,97.8174 309.5,97.5C 309.5,96.5 309.5,95.5 309.5,94.5C 305.078,93.9789 302.745,95.9789 302.5,100.5C 298.307,100.775 294.807,102.442 292,105.5C 290.89,103.963 289.39,103.297 287.5,103.5C 279.082,100.124 271.082,95.9575 263.5,91C 260.28,89.6476 256.947,88.8143 253.5,88.5C 255.292,87.6909 257.292,87.1909 259.5,87C 259.043,86.586 258.709,86.086 258.5,85.5C 262.223,85.0039 265.89,85.6705 269.5,87.5C 270.466,85.604 270.799,83.604 270.5,81.5C 268.897,81.6882 267.563,81.1882 266.5,80C 270.346,78.464 274.346,77.6307 278.5,77.5C 278.5,78.8333 278.5,80.1667 278.5,81.5C 282.007,81.3067 285.34,81.9733 288.5,83.5C 290.167,82.8333 291.833,82.1667 293.5,81.5C 305.922,67.0784 319.255,53.745 333.5,41.5C 334.386,40.675 334.719,39.675 334.5,38.5C 337.011,37.2401 339.344,35.5734 341.5,33.5C 342.386,32.675 342.719,31.675 342.5,30.5C 347.167,29.8333 349.833,27.1667 350.5,22.5C 355.167,21.8333 357.833,19.1667 358.5,14.5C 363.167,13.8333 365.833,11.1667 366.5,6.5C 370.725,5.94183 373.391,3.6085 374.5,-0.5 Z"/></g>
<g><path style="opacity:1" fill="#30e3de" d="M 412.5,-0.5 C 434.167,-0.5 455.833,-0.5 477.5,-0.5C 476.167,1.16667 474.833,2.83333 473.5,4.5C 472.5,4.5 471.5,4.5 470.5,4.5C 470.5,7.83333 470.5,11.1667 470.5,14.5C 467.833,14.5 465.167,14.5 462.5,14.5C 462.5,19.8333 462.5,25.1667 462.5,30.5C 457.167,30.5 451.833,30.5 446.5,30.5C 446.5,35.8333 446.5,41.1667 446.5,46.5C 441.167,46.5 435.833,46.5 430.5,46.5C 430.5,51.8333 430.5,57.1667 430.5,62.5C 425.167,62.5 419.833,62.5 414.5,62.5C 414.5,65.1667 414.5,67.8333 414.5,70.5C 411.833,70.5 409.167,70.5 406.5,70.5C 406.5,73.1667 406.5,75.8333 406.5,78.5C 403.833,78.5 401.167,78.5 398.5,78.5C 398.5,81.1667 398.5,83.8333 398.5,86.5C 395.941,86.1984 393.607,86.5318 391.5,87.5C 390.504,87.4142 389.671,87.7476 389,88.5C 390.064,93.401 387.897,95.401 382.5,94.5C 382.5,97.1667 382.5,99.8333 382.5,102.5C 379.07,102.107 375.904,102.773 373,104.5C 374.064,109.401 371.897,111.401 366.5,110.5C 366.5,113.167 366.5,115.833 366.5,118.5C 364.143,118.337 361.81,118.503 359.5,119C 358.809,120.067 358.309,121.234 358,122.5C 355.763,121.944 353.763,120.944 352,119.5C 350.798,121.677 350.298,124.011 350.5,126.5C 349.5,126.5 348.5,126.5 347.5,126.5C 347.719,127.675 347.386,128.675 346.5,129.5C 343.71,126.709 340.543,126.042 337,127.5C 334.707,125.628 332.207,124.128 329.5,123C 330.905,121.731 332.571,121.231 334.5,121.5C 334.5,120.167 334.5,118.833 334.5,117.5C 329.442,119.882 324.109,121.216 318.5,121.5C 310.886,117.693 303.22,113.86 295.5,110C 292.213,108.533 289.546,106.366 287.5,103.5C 289.39,103.297 290.89,103.963 292,105.5C 294.807,102.442 298.307,100.775 302.5,100.5C 302.745,95.9789 305.078,93.9789 309.5,94.5C 309.5,95.5 309.5,96.5 309.5,97.5C 312.572,97.8174 315.572,97.4841 318.5,96.5C 320.529,93.9708 322.362,91.3041 324,88.5C 354.369,59.6311 383.869,29.9644 412.5,-0.5 Z"/></g>
<g><path style="opacity:1" fill="#2de1de" d="M 477.5,-0.5 C 488.5,-0.5 499.5,-0.5 510.5,-0.5C 510.5,1.5 510.5,3.5 510.5,5.5C 505.671,6.2672 502.671,9.10053 501.5,14C 499.19,14.4966 496.857,14.6633 494.5,14.5C 494.5,16.8333 494.5,19.1667 494.5,21.5C 489.713,22.1557 486.546,24.8223 485,29.5C 483.252,20.3989 482.086,20.7322 481.5,30.5C 480.5,30.5 479.5,30.5 478.5,30.5C 478.799,32.604 478.466,34.604 477.5,36.5C 476.719,35.2713 476.219,33.938 476,32.5C 475.333,31.1667 474.667,31.1667 474,32.5C 474.233,37.5886 472.566,41.9219 469,45.5C 467.252,36.3989 466.086,36.7322 465.5,46.5C 464.5,46.5 463.5,46.5 462.5,46.5C 462.799,48.604 462.466,50.604 461.5,52.5C 460.719,51.2713 460.219,49.938 460,48.5C 459.333,47.1667 458.667,47.1667 458,48.5C 458.233,53.5886 456.566,57.9219 453,61.5C 451.252,52.3989 450.086,52.7322 449.5,62.5C 448.5,62.5 447.5,62.5 446.5,62.5C 446.799,64.604 446.466,66.604 445.5,68.5C 444.719,67.2713 444.219,65.938 444,64.5C 443.333,63.1667 442.667,63.1667 442,64.5C 442.233,69.5886 440.566,73.9219 437,77.5C 435.252,68.3989 434.086,68.7322 433.5,78.5C 432.5,78.5 431.5,78.5 430.5,78.5C 430.662,80.5273 430.495,82.5273 430,84.5C 425.72,86.0567 423.053,89.0567 422,93.5C 419.141,94.1734 416.308,95.0068 413.5,96C 401.772,107.728 390.106,119.394 378.5,131C 376.167,131.667 373.833,131.667 371.5,131C 368.511,127.839 364.844,126.339 360.5,126.5C 360.351,127.552 360.517,128.552 361,129.5C 362.957,130.889 364.79,132.389 366.5,134C 366.333,134.5 366.167,135 366,135.5C 362.974,131.382 360.974,131.715 360,136.5C 357.861,135.231 355.695,135.231 353.5,136.5C 355.356,139.19 357.689,141.356 360.5,143C 365.014,143.257 368.681,145.09 371.5,148.5C 370.311,149.429 368.978,149.762 367.5,149.5C 350.345,141.428 334.011,132.094 318.5,121.5C 324.109,121.216 329.442,119.882 334.5,117.5C 334.5,118.833 334.5,120.167 334.5,121.5C 332.571,121.231 330.905,121.731 329.5,123C 332.207,124.128 334.707,125.628 337,127.5C 340.543,126.042 343.71,126.709 346.5,129.5C 347.386,128.675 347.719,127.675 347.5,126.5C 348.5,126.5 349.5,126.5 350.5,126.5C 350.298,124.011 350.798,121.677 352,119.5C 353.763,120.944 355.763,121.944 358,122.5C 358.309,121.234 358.809,120.067 359.5,119C 361.81,118.503 364.143,118.337 366.5,118.5C 366.5,115.833 366.5,113.167 366.5,110.5C 371.897,111.401 374.064,109.401 373,104.5C 375.904,102.773 379.07,102.107 382.5,102.5C 382.5,99.8333 382.5,97.1667 382.5,94.5C 387.897,95.401 390.064,93.401 389,88.5C 389.671,87.7476 390.504,87.4142 391.5,87.5C 394.167,87.5 396.833,87.5 399.5,87.5C 399.5,84.8333 399.5,82.1667 399.5,79.5C 402.167,79.5 404.833,79.5 407.5,79.5C 407.5,76.8333 407.5,74.1667 407.5,71.5C 410.167,71.5 412.833,71.5 415.5,71.5C 415.5,68.8333 415.5,66.1667 415.5,63.5C 420.833,63.5 426.167,63.5 431.5,63.5C 431.5,58.1667 431.5,52.8333 431.5,47.5C 436.833,47.5 442.167,47.5 447.5,47.5C 447.5,42.1667 447.5,36.8333 447.5,31.5C 452.833,31.5 458.167,31.5 463.5,31.5C 463.5,26.1667 463.5,20.8333 463.5,15.5C 466.167,15.5 468.833,15.5 471.5,15.5C 471.036,11.4975 471.702,7.83086 473.5,4.5C 474.833,2.83333 476.167,1.16667 477.5,-0.5 Z"/></g>
<g><path style="opacity:1" fill="#2adedf" d="M 510.5,5.5 C 510.5,22.8333 510.5,40.1667 510.5,57.5C 481.984,85.3498 453.65,113.683 425.5,142.5C 424.675,143.386 423.675,143.719 422.5,143.5C 422.8,147.993 420.8,150.659 416.5,151.5C 415.738,152.628 415.071,153.795 414.5,155C 409.632,153.96 404.632,153.46 399.5,153.5C 399.5,154.833 399.5,156.167 399.5,157.5C 394.269,156.588 390.935,158.588 389.5,163.5C 381.453,159.818 374.12,155.152 367.5,149.5C 368.978,149.762 370.311,149.429 371.5,148.5C 368.681,145.09 365.014,143.257 360.5,143C 357.689,141.356 355.356,139.19 353.5,136.5C 355.695,135.231 357.861,135.231 360,136.5C 360.974,131.715 362.974,131.382 366,135.5C 366.167,135 366.333,134.5 366.5,134C 364.79,132.389 362.957,130.889 361,129.5C 360.517,128.552 360.351,127.552 360.5,126.5C 364.844,126.339 368.511,127.839 371.5,131C 373.833,131.667 376.167,131.667 378.5,131C 390.106,119.394 401.772,107.728 413.5,96C 416.308,95.0068 419.141,94.1734 422,93.5C 423.053,89.0567 425.72,86.0567 430,84.5C 430.495,82.5273 430.662,80.5273 430.5,78.5C 431.5,78.5 432.5,78.5 433.5,78.5C 434.086,68.7322 435.252,68.3989 437,77.5C 440.566,73.9219 442.233,69.5886 442,64.5C 442.667,63.1667 443.333,63.1667 444,64.5C 444.219,65.938 444.719,67.2713 445.5,68.5C 446.466,66.604 446.799,64.604 446.5,62.5C 447.5,62.5 448.5,62.5 449.5,62.5C 450.086,52.7322 451.252,52.3989 453,61.5C 456.566,57.9219 458.233,53.5886 458,48.5C 458.667,47.1667 459.333,47.1667 460,48.5C 460.219,49.938 460.719,51.2713 461.5,52.5C 462.466,50.604 462.799,48.604 462.5,46.5C 463.5,46.5 464.5,46.5 465.5,46.5C 466.086,36.7322 467.252,36.3989 469,45.5C 472.566,41.9219 474.233,37.5886 474,32.5C 474.667,31.1667 475.333,31.1667 476,32.5C 476.219,33.938 476.719,35.2713 477.5,36.5C 478.466,34.604 478.799,32.604 478.5,30.5C 479.5,30.5 480.5,30.5 481.5,30.5C 482.086,20.7322 483.252,20.3989 485,29.5C 486.546,24.8223 489.713,22.1557 494.5,21.5C 494.5,19.1667 494.5,16.8333 494.5,14.5C 496.857,14.6633 499.19,14.4966 501.5,14C 502.671,9.10053 505.671,6.2672 510.5,5.5 Z"/></g>
<g><path style="opacity:1" fill="#5fe8e5" d="M 473.5,4.5 C 471.702,7.83086 471.036,11.4975 471.5,15.5C 468.833,15.5 466.167,15.5 463.5,15.5C 463.5,20.8333 463.5,26.1667 463.5,31.5C 458.167,31.5 452.833,31.5 447.5,31.5C 447.5,36.8333 447.5,42.1667 447.5,47.5C 442.167,47.5 436.833,47.5 431.5,47.5C 431.5,52.8333 431.5,58.1667 431.5,63.5C 426.167,63.5 420.833,63.5 415.5,63.5C 415.5,66.1667 415.5,68.8333 415.5,71.5C 412.833,71.5 410.167,71.5 407.5,71.5C 407.5,74.1667 407.5,76.8333 407.5,79.5C 404.833,79.5 402.167,79.5 399.5,79.5C 399.5,82.1667 399.5,84.8333 399.5,87.5C 396.833,87.5 394.167,87.5 391.5,87.5C 393.607,86.5318 395.941,86.1984 398.5,86.5C 398.5,83.8333 398.5,81.1667 398.5,78.5C 401.167,78.5 403.833,78.5 406.5,78.5C 406.5,75.8333 406.5,73.1667 406.5,70.5C 409.167,70.5 411.833,70.5 414.5,70.5C 414.5,67.8333 414.5,65.1667 414.5,62.5C 419.833,62.5 425.167,62.5 430.5,62.5C 430.5,57.1667 430.5,51.8333 430.5,46.5C 435.833,46.5 441.167,46.5 446.5,46.5C 446.5,41.1667 446.5,35.8333 446.5,30.5C 451.833,30.5 457.167,30.5 462.5,30.5C 462.5,25.1667 462.5,19.8333 462.5,14.5C 465.167,14.5 467.833,14.5 470.5,14.5C 470.5,11.1667 470.5,7.83333 470.5,4.5C 471.5,4.5 472.5,4.5 473.5,4.5 Z"/></g>
<g><path style="opacity:1" fill="#25dbdf" d="M 510.5,57.5 C 510.5,77.5 510.5,97.5 510.5,117.5C 505.963,119.367 503.296,122.701 502.5,127.5C 500.167,127.5 497.833,127.5 495.5,127.5C 495.657,128.873 495.49,130.207 495,131.5C 490.748,134.571 487.915,138.571 486.5,143.5C 484.167,143.5 481.833,143.5 479.5,143.5C 479.657,144.873 479.49,146.207 479,147.5C 474.748,150.571 471.915,154.571 470.5,159.5C 468.167,159.5 465.833,159.5 463.5,159.5C 463.657,160.873 463.49,162.207 463,163.5C 458.748,166.571 455.915,170.571 454.5,175.5C 452.167,175.5 449.833,175.5 447.5,175.5C 447.657,176.873 447.49,178.207 447,179.5C 442.748,182.571 439.915,186.571 438.5,191.5C 435.5,191.5 432.5,191.5 429.5,191.5C 429.373,187.738 428.706,184.072 427.5,180.5C 426.218,182.179 425.218,184.013 424.5,186C 422.112,186.865 420.612,186.032 420,183.5C 419.718,177.331 420.384,171.331 422,165.5C 419.993,166.669 417.827,167.335 415.5,167.5C 415.435,169.696 414.768,171.696 413.5,173.5C 412.105,172.185 411.105,172.519 410.5,174.5C 413.329,178.32 413.995,182.32 412.5,186.5C 412.25,184.326 411.25,182.659 409.5,181.5C 408.552,177.112 406.219,173.612 402.5,171C 398.139,168.488 393.806,165.988 389.5,163.5C 390.935,158.588 394.269,156.588 399.5,157.5C 399.5,156.167 399.5,154.833 399.5,153.5C 404.632,153.46 409.632,153.96 414.5,155C 415.071,153.795 415.738,152.628 416.5,151.5C 420.8,150.659 422.8,147.993 422.5,143.5C 423.675,143.719 424.675,143.386 425.5,142.5C 453.65,113.683 481.984,85.3498 510.5,57.5 Z"/></g>
<g><path style="opacity:1" fill="#fcfdfd" d="M 253.5,88.5 C 256.947,88.8143 260.28,89.6476 263.5,91C 271.082,95.9575 279.082,100.124 287.5,103.5C 289.546,106.366 292.213,108.533 295.5,110C 303.22,113.86 310.886,117.693 318.5,121.5C 334.011,132.094 350.345,141.428 367.5,149.5C 374.12,155.152 381.453,159.818 389.5,163.5C 393.806,165.988 398.139,168.488 402.5,171C 406.219,173.612 408.552,177.112 409.5,181.5C 409.5,248.167 409.5,314.833 409.5,381.5C 408.167,384.5 406.833,387.5 405.5,390.5C 402.878,392.644 399.878,393.977 396.5,394.5C 302.237,395.497 207.904,395.831 113.5,395.5C 112.791,394.596 111.791,394.263 110.5,394.5C 108.539,392.037 106.372,389.703 104,387.5C 102.864,385.257 102.03,382.924 101.5,380.5C 101.5,314.167 101.5,247.833 101.5,181.5C 102.554,176.562 105.221,172.729 109.5,170C 145.558,149.645 181.225,128.811 216.5,107.5C 228.713,100.894 241.046,94.5605 253.5,88.5 Z"/></g>
<g><path style="opacity:1" fill="#22d8df" d="M 510.5,117.5 C 510.5,128.167 510.5,138.833 510.5,149.5C 506.038,151.305 503.372,154.638 502.5,159.5C 500.167,159.5 497.833,159.5 495.5,159.5C 495.74,163.796 493.74,166.463 489.5,167.5C 487.929,169.971 486.929,172.637 486.5,175.5C 484.167,175.5 481.833,175.5 479.5,175.5C 479.74,179.796 477.74,182.463 473.5,183.5C 471.929,185.971 470.929,188.637 470.5,191.5C 468.167,191.5 465.833,191.5 463.5,191.5C 463.74,195.796 461.74,198.463 457.5,199.5C 455.929,201.971 454.929,204.637 454.5,207.5C 452.167,207.5 449.833,207.5 447.5,207.5C 447.74,211.796 445.74,214.463 441.5,215.5C 439.929,217.971 438.929,220.637 438.5,223.5C 436.167,223.5 433.833,223.5 431.5,223.5C 431.643,225.262 431.309,226.929 430.5,228.5C 426.948,229.885 424.614,232.385 423.5,236C 426.232,236.413 428.899,237.08 431.5,238C 430.282,239.438 429.615,241.105 429.5,243C 430.73,247.084 431.397,251.251 431.5,255.5C 428.833,255.5 426.167,255.5 423.5,255.5C 423.821,261.026 423.488,266.36 422.5,271.5C 421.518,272.141 420.518,272.807 419.5,273.5C 418.604,264.061 417.104,254.728 415,245.5C 414.088,251.634 413.255,257.634 412.5,263.5C 412.5,237.833 412.5,212.167 412.5,186.5C 413.995,182.32 413.329,178.32 410.5,174.5C 411.105,172.519 412.105,172.185 413.5,173.5C 414.768,171.696 415.435,169.696 415.5,167.5C 417.827,167.335 419.993,166.669 422,165.5C 420.384,171.331 419.718,177.331 420,183.5C 420.612,186.032 422.112,186.865 424.5,186C 425.218,184.013 426.218,182.179 427.5,180.5C 428.706,184.072 429.373,187.738 429.5,191.5C 432.5,191.5 435.5,191.5 438.5,191.5C 439.915,186.571 442.748,182.571 447,179.5C 447.49,178.207 447.657,176.873 447.5,175.5C 449.833,175.5 452.167,175.5 454.5,175.5C 455.915,170.571 458.748,166.571 463,163.5C 463.49,162.207 463.657,160.873 463.5,159.5C 465.833,159.5 468.167,159.5 470.5,159.5C 471.915,154.571 474.748,150.571 479,147.5C 479.49,146.207 479.657,144.873 479.5,143.5C 481.833,143.5 484.167,143.5 486.5,143.5C 487.915,138.571 490.748,134.571 495,131.5C 495.49,130.207 495.657,128.873 495.5,127.5C 497.833,127.5 500.167,127.5 502.5,127.5C 503.296,122.701 505.963,119.367 510.5,117.5 Z"/></g>
<g><path style="opacity:1" fill="#1dd6e1" d="M 510.5,149.5 C 510.5,176.167 510.5,202.833 510.5,229.5C 509.518,230.141 508.518,230.807 507.5,231.5C 506.29,238.117 502.29,240.784 495.5,239.5C 495.628,241.655 495.128,243.655 494,245.5C 492.028,246.305 490.528,247.639 489.5,249.5C 490.833,250.833 490.833,252.167 489.5,253.5C 486.398,255.183 483.064,255.849 479.5,255.5C 479.5,258.167 479.5,260.833 479.5,263.5C 473.5,262.833 470.833,265.5 471.5,271.5C 468.833,271.5 466.167,271.5 463.5,271.5C 463.5,274.167 463.5,276.833 463.5,279.5C 457.5,278.833 454.833,281.5 455.5,287.5C 452.833,287.5 450.167,287.5 447.5,287.5C 447.5,290.167 447.5,292.833 447.5,295.5C 441.5,294.833 438.833,297.5 439.5,303.5C 436.833,303.5 434.167,303.5 431.5,303.5C 431.768,305.099 431.434,306.432 430.5,307.5C 430.366,301.727 429.532,296.06 428,290.5C 427.506,292.134 427.34,293.801 427.5,295.5C 425.654,295.778 424.32,295.111 423.5,293.5C 424.733,289.734 425.733,285.901 426.5,282C 425.074,278.557 423.74,275.057 422.5,271.5C 423.488,266.36 423.821,261.026 423.5,255.5C 426.167,255.5 428.833,255.5 431.5,255.5C 431.397,251.251 430.73,247.084 429.5,243C 429.615,241.105 430.282,239.438 431.5,238C 428.899,237.08 426.232,236.413 423.5,236C 424.614,232.385 426.948,229.885 430.5,228.5C 431.309,226.929 431.643,225.262 431.5,223.5C 433.833,223.5 436.167,223.5 438.5,223.5C 438.929,220.637 439.929,217.971 441.5,215.5C 445.74,214.463 447.74,211.796 447.5,207.5C 449.833,207.5 452.167,207.5 454.5,207.5C 454.929,204.637 455.929,201.971 457.5,199.5C 461.74,198.463 463.74,195.796 463.5,191.5C 465.833,191.5 468.167,191.5 470.5,191.5C 470.929,188.637 471.929,185.971 473.5,183.5C 477.74,182.463 479.74,179.796 479.5,175.5C 481.833,175.5 484.167,175.5 486.5,175.5C 486.929,172.637 487.929,169.971 489.5,167.5C 493.74,166.463 495.74,163.796 495.5,159.5C 497.833,159.5 500.167,159.5 502.5,159.5C 503.372,154.638 506.038,151.305 510.5,149.5 Z"/></g>
<g><path style="opacity:1" fill="#25e0cf" d="M 277.5,272.5 C 273.534,273.162 269.534,273.495 265.5,273.5C 260.174,270.847 258.007,266.514 259,260.5C 273.379,246.622 287.212,232.289 300.5,217.5C 291.797,207.48 280.797,201.647 267.5,200C 230.574,195.872 205.408,211.038 192,245.5C 186.409,275.789 195.909,299.956 220.5,318C 225.524,321.015 230.858,323.182 236.5,324.5C 241.419,326.964 246.752,327.964 252.5,327.5C 257.437,327.7 262.104,327.033 266.5,325.5C 293.787,320.38 310.954,304.38 318,277.5C 318.129,271.086 318.796,264.753 320,258.5C 324.19,253.602 329.356,252.269 335.5,254.5C 336.425,255.357 337.092,256.357 337.5,257.5C 337.753,259.827 337.086,261.827 335.5,263.5C 336.884,266.334 337.551,269.334 337.5,272.5C 337.018,277.538 336.352,282.538 335.5,287.5C 322.209,327.422 294.376,347.422 252,347.5C 223.147,346.409 200.48,334.076 184,310.5C 178.825,302.151 175.325,293.151 173.5,283.5C 171.431,265.956 172.431,248.622 176.5,231.5C 191.029,197.494 216.862,179.828 254,178.5C 280.978,178.265 303.311,188.265 321,208.5C 323.612,211.389 325.445,214.722 326.5,218.5C 326.101,220.197 325.601,221.863 325,223.5C 309.3,240.033 293.466,256.366 277.5,272.5 Z"/></g>
<g><path style="opacity:1" fill="#35e6dd" d="M 98.5,182.5 C 97.5447,190.336 97.5447,198.336 98.5,206.5C 98.5,233.167 98.5,259.833 98.5,286.5C 97.1266,286.343 95.7932,286.51 94.5,287C 95.6577,297.441 95.6577,307.941 94.5,318.5C 92.1667,318.5 89.8333,318.5 87.5,318.5C 87.7989,316.396 87.4656,314.396 86.5,312.5C 85.8933,312.624 85.56,312.957 85.5,313.5C 85.2527,316.974 84.2527,317.641 82.5,315.5C 81.2888,316.274 81.2888,317.107 82.5,318C 79.8333,319 79.8333,320 82.5,321C 81.1667,322.333 81.1667,323.667 82.5,325C 80.4078,325.953 80.0745,327.286 81.5,329C 80.0267,329.71 79.3601,330.876 79.5,332.5C 75.6727,332.44 75.006,333.607 77.5,336C 54.3358,359.164 31.1691,382.331 8,405.5C 6.84561,403.043 5.51228,403.043 4,405.5C 3.86213,407.432 4.36213,409.266 5.5,411C 4.354,411.645 3.354,412.478 2.5,413.5C 1.48224,412.807 0.482236,412.141 -0.5,411.5C -0.5,398.833 -0.5,386.167 -0.5,373.5C 2.41227,370.419 5.74561,367.919 9.5,366C 12.242,364.114 13.9087,361.614 14.5,358.5C 18.8333,357.5 21.5,354.833 22.5,350.5C 26.8333,349.5 29.5,346.833 30.5,342.5C 34.8333,341.5 37.5,338.833 38.5,334.5C 42.8333,333.5 45.5,330.833 46.5,326.5C 50.8333,325.5 53.5,322.833 54.5,318.5C 58.8333,317.5 61.5,314.833 62.5,310.5C 66.8333,309.5 69.5,306.833 70.5,302.5C 73.6136,301.909 76.1136,300.242 78,297.5C 78.5323,294.736 79.3657,292.07 80.5,289.5C 79.8333,288.167 79.1667,286.833 78.5,285.5C 80.8708,280.33 81.5375,274.997 80.5,269.5C 80.5437,266.59 81.7103,265.59 84,266.5C 85.045,265.627 85.8783,264.627 86.5,263.5C 87.4345,262.432 87.7678,261.099 87.5,259.5C 88.8333,259.5 90.1667,259.5 91.5,259.5C 91.5,251.5 91.5,243.5 91.5,235.5C 92.8333,235.5 94.1667,235.5 95.5,235.5C 95.8245,228.313 95.4912,221.313 94.5,214.5C 93.8418,213.207 93.5085,211.707 93.5,210C 94.8464,200.19 96.0131,190.357 97,180.5C 97.7172,181.044 98.2172,181.711 98.5,182.5 Z"/></g>
<g><path style="opacity:1" fill="#82e8e0" d="M 101.5,181.5 C 101.5,247.833 101.5,314.167 101.5,380.5C 100.778,380.082 100.278,379.416 100,378.5C 99.5002,368.839 99.3335,359.172 99.5,349.5C 99.8321,301.664 99.4988,253.997 98.5,206.5C 97.5447,198.336 97.5447,190.336 98.5,182.5C 98.56,183.043 98.8933,183.376 99.5,183.5C 100.182,182.757 100.849,182.091 101.5,181.5 Z"/></g>
<g><path style="opacity:1" fill="#37e8dd" d="M 94.5,215.5 C 94.5,221.833 94.5,228.167 94.5,234.5C 93.1667,234.5 91.8333,234.5 90.5,234.5C 90.5,242.5 90.5,250.5 90.5,258.5C 89.1667,258.5 87.8333,258.5 86.5,258.5C 86.5,260.167 86.5,261.833 86.5,263.5C 85.8783,264.627 85.045,265.627 84,266.5C 81.7103,265.59 80.5437,266.59 80.5,269.5C 81.5375,274.997 80.8708,280.33 78.5,285.5C 79.1667,286.833 79.8333,288.167 80.5,289.5C 79.3657,292.07 78.5323,294.736 78,297.5C 76.1136,300.242 73.6136,301.909 70.5,302.5C 69.5,306.833 66.8333,309.5 62.5,310.5C 61.5,314.833 58.8333,317.5 54.5,318.5C 53.5,322.833 50.8333,325.5 46.5,326.5C 45.5,330.833 42.8333,333.5 38.5,334.5C 37.5,338.833 34.8333,341.5 30.5,342.5C 29.5,346.833 26.8333,349.5 22.5,350.5C 21.5,354.833 18.8333,357.5 14.5,358.5C 13.9087,361.614 12.242,364.114 9.5,366C 5.74561,367.919 2.41227,370.419 -0.5,373.5C -0.5,356.5 -0.5,339.5 -0.5,322.5C 1.91176,322.306 2.91176,320.973 2.5,318.5C 3.97782,318.762 5.31116,318.429 6.5,317.5C 27.3201,296.846 47.9868,276.013 68.5,255C 76.0192,251.995 79.6859,246.495 79.5,238.5C 81.1667,238.5 82.8333,238.5 84.5,238.5C 84.5,233.167 84.5,227.833 84.5,222.5C 86.9201,222.708 89.2534,222.374 91.5,221.5C 91.9642,219.025 92.9642,217.025 94.5,215.5 Z"/></g>
<g><path style="opacity:1" fill="#16d2e2" d="M 510.5,229.5 C 510.5,254.167 510.5,278.833 510.5,303.5C 508.396,303.201 506.396,303.534 504.5,304.5C 503.018,308.815 500.184,311.815 496,313.5C 495.505,315.473 495.338,317.473 495.5,319.5C 493.076,319.192 490.743,319.526 488.5,320.5C 487.018,324.815 484.184,327.815 480,329.5C 479.505,331.473 479.338,333.473 479.5,335.5C 477.076,335.192 474.743,335.526 472.5,336.5C 471.018,340.815 468.184,343.815 464,345.5C 463.505,347.473 463.338,349.473 463.5,351.5C 461.076,351.192 458.743,351.526 456.5,352.5C 455.018,356.815 452.184,359.815 448,361.5C 447.505,363.473 447.338,365.473 447.5,367.5C 445.076,367.192 442.743,367.526 440.5,368.5C 439.018,372.815 436.184,375.815 432,377.5C 430.667,374.833 429.333,372.167 428,369.5C 427.333,371.5 426.667,373.5 426,375.5C 425.333,374.833 424.667,374.167 424,373.5C 423.243,375.315 422.41,376.981 421.5,378.5C 420.261,374.318 420.261,369.985 421.5,365.5C 420.769,362.347 420.103,359.181 419.5,356C 421.449,352.661 423.116,349.161 424.5,345.5C 428.478,343.037 431.144,339.537 432.5,335C 429.829,333.097 426.829,332.264 423.5,332.5C 423.548,329.687 424.215,327.021 425.5,324.5C 423.674,324.08 421.674,324.08 419.5,324.5C 419.5,322.833 419.5,321.167 419.5,319.5C 422.346,319.191 423.846,317.525 424,314.5C 426.4,312.271 428.567,309.937 430.5,307.5C 431.434,306.432 431.768,305.099 431.5,303.5C 434.167,303.5 436.833,303.5 439.5,303.5C 438.833,297.5 441.5,294.833 447.5,295.5C 447.5,292.833 447.5,290.167 447.5,287.5C 450.167,287.5 452.833,287.5 455.5,287.5C 454.833,281.5 457.5,278.833 463.5,279.5C 463.5,276.833 463.5,274.167 463.5,271.5C 466.167,271.5 468.833,271.5 471.5,271.5C 470.833,265.5 473.5,262.833 479.5,263.5C 479.5,260.833 479.5,258.167 479.5,255.5C 483.064,255.849 486.398,255.183 489.5,253.5C 490.833,252.167 490.833,250.833 489.5,249.5C 490.528,247.639 492.028,246.305 494,245.5C 495.128,243.655 495.628,241.655 495.5,239.5C 502.29,240.784 506.29,238.117 507.5,231.5C 508.518,230.807 509.518,230.141 510.5,229.5 Z"/></g>
<g><path style="opacity:1" fill="#64ece4" d="M 94.5,214.5 C 95.4912,221.313 95.8245,228.313 95.5,235.5C 94.1667,235.5 92.8333,235.5 91.5,235.5C 91.5,243.5 91.5,251.5 91.5,259.5C 90.1667,259.5 88.8333,259.5 87.5,259.5C 87.7678,261.099 87.4345,262.432 86.5,263.5C 86.5,261.833 86.5,260.167 86.5,258.5C 87.8333,258.5 89.1667,258.5 90.5,258.5C 90.5,250.5 90.5,242.5 90.5,234.5C 91.8333,234.5 93.1667,234.5 94.5,234.5C 94.5,228.167 94.5,221.833 94.5,215.5C 94.5,215.167 94.5,214.833 94.5,214.5 Z"/></g>
<g><path style="opacity:1" fill="#6de2d8" d="M 176.5,231.5 C 172.431,248.622 171.431,265.956 173.5,283.5C 167.524,265.785 168.524,248.452 176.5,231.5 Z"/></g>
<g><path style="opacity:1" fill="#1ed1df" d="M 422.5,271.5 C 423.74,275.057 425.074,278.557 426.5,282C 425.733,285.901 424.733,289.734 423.5,293.5C 424.32,295.111 425.654,295.778 427.5,295.5C 427.34,293.801 427.506,292.134 428,290.5C 429.532,296.06 430.366,301.727 430.5,307.5C 428.567,309.937 426.4,312.271 424,314.5C 423.846,317.525 422.346,319.191 419.5,319.5C 419.5,321.167 419.5,322.833 419.5,324.5C 421.674,324.08 423.674,324.08 425.5,324.5C 424.215,327.021 423.548,329.687 423.5,332.5C 426.829,332.264 429.829,333.097 432.5,335C 431.144,339.537 428.478,343.037 424.5,345.5C 423.116,349.161 421.449,352.661 419.5,356C 420.103,359.181 420.769,362.347 421.5,365.5C 420.261,369.985 420.261,374.318 421.5,378.5C 421.631,379.376 421.298,380.043 420.5,380.5C 419.667,379.5 418.833,378.5 418,377.5C 417.667,371.5 417.333,365.5 417,359.5C 415.925,367.779 415.092,376.113 414.5,384.5C 413.831,382.369 413.165,380.369 412.5,378.5C 412.5,340.167 412.5,301.833 412.5,263.5C 413.255,257.634 414.088,251.634 415,245.5C 417.104,254.728 418.604,264.061 419.5,273.5C 420.518,272.807 421.518,272.141 422.5,271.5 Z"/></g>
<g><path style="opacity:1" fill="#74dae2" d="M 409.5,181.5 C 411.25,182.659 412.25,184.326 412.5,186.5C 412.5,212.167 412.5,237.833 412.5,263.5C 412.5,301.833 412.5,340.167 412.5,378.5C 412.5,379.5 412.5,380.5 412.5,381.5C 411.5,381.5 410.5,381.5 409.5,381.5C 409.5,314.833 409.5,248.167 409.5,181.5 Z"/></g>
<g><path style="opacity:1" fill="#60e0d5" d="M 337.5,257.5 C 338.117,257.611 338.617,257.944 339,258.5C 339.723,266.542 339.39,274.542 338,282.5C 337.626,284.491 336.793,286.158 335.5,287.5C 336.352,282.538 337.018,277.538 337.5,272.5C 337.551,269.334 336.884,266.334 335.5,263.5C 337.086,261.827 337.753,259.827 337.5,257.5 Z"/></g>
<g><path style="opacity:1" fill="#bbf9f4" d="M 277.5,272.5 C 275.538,274.017 273.205,274.684 270.5,274.5C 268.631,274.493 266.964,274.16 265.5,273.5C 269.534,273.495 273.534,273.162 277.5,272.5 Z"/></g>
<g><path style="opacity:1" fill="#2fe0dd" d="M 99.5,349.5 C 99.3335,359.172 99.5002,368.839 100,378.5C 100.278,379.416 100.778,380.082 101.5,380.5C 102.03,382.924 102.864,385.257 104,387.5C 106.372,389.703 108.539,392.037 110.5,394.5C 112.033,396.79 111.7,397.456 109.5,396.5C 106.706,399.1 103.873,399.1 101,396.5C 100.244,394.191 100.744,392.191 102.5,390.5C 100.722,390.431 98.8886,390.097 97,389.5C 96.2506,388.365 96.4173,387.365 97.5,386.5C 98.9038,387.999 99.5704,387.666 99.5,385.5C 98.9639,383.058 98.1306,380.725 97,378.5C 93.2064,384.95 91.5397,391.95 92,399.5C 90.7365,401.607 88.9032,402.607 86.5,402.5C 86.5,405.5 86.5,408.5 86.5,411.5C 88.1667,411.5 89.8333,411.5 91.5,411.5C 91.6633,413.857 91.4966,416.19 91,418.5C 62.068,447.932 32.9014,477.266 3.5,506.5C 2.26381,507.246 0.930472,507.579 -0.5,507.5C -0.5,497.167 -0.5,486.833 -0.5,476.5C 0.583168,476.539 1.58317,476.873 2.5,477.5C 5.22017,472.275 8.88683,467.775 13.5,464C 16.5535,463.821 19.5535,463.321 22.5,462.5C 20.5753,455.741 23.242,452.408 30.5,452.5C 30.5,450.5 30.5,448.5 30.5,446.5C 33.3297,446.694 35.9963,447.361 38.5,448.5C 35.673,440.818 38.3397,436.818 46.5,436.5C 46.5,434.5 46.5,432.5 46.5,430.5C 49.1178,430.779 51.6178,431.446 54,432.5C 53.4233,425.55 55.9233,420.05 61.5,416C 64.4294,415.223 67.2628,415.39 70,416.5C 69.6087,409.951 71.942,404.618 77,400.5C 78.8681,397.395 80.0348,394.062 80.5,390.5C 82.7224,390.178 84.5557,390.845 86,392.5C 87.9671,384.608 89.8004,376.608 91.5,368.5C 91.2741,366.811 90.9408,365.145 90.5,363.5C 91.7611,357.471 93.0944,351.471 94.5,345.5C 94.1667,344.833 93.8333,344.167 93.5,343.5C 95.0471,336.938 95.7138,330.271 95.5,323.5C 96.1667,311.66 96.8333,299.66 97.5,287.5C 98.1667,308.329 98.8333,328.996 99.5,349.5 Z"/></g>
<g><path style="opacity:1" fill="#6ae9e4" d="M 98.5,206.5 C 99.4988,253.997 99.8321,301.664 99.5,349.5C 98.8333,328.996 98.1667,308.329 97.5,287.5C 96.8333,299.66 96.1667,311.66 95.5,323.5C 95.5,322.167 95.5,320.833 95.5,319.5C 94.5,319.5 93.5,319.5 92.5,319.5C 91.8333,323.5 91.1667,323.5 90.5,319.5C 89.1667,319.5 87.8333,319.5 86.5,319.5C 86.7947,317.265 86.4614,315.265 85.5,313.5C 85.56,312.957 85.8933,312.624 86.5,312.5C 87.4656,314.396 87.7989,316.396 87.5,318.5C 89.8333,318.5 92.1667,318.5 94.5,318.5C 95.6577,307.941 95.6577,297.441 94.5,287C 95.7932,286.51 97.1266,286.343 98.5,286.5C 98.5,259.833 98.5,233.167 98.5,206.5 Z"/></g>
<g><path style="opacity:1" fill="#13cfe2" d="M 510.5,303.5 C 510.5,319.5 510.5,335.5 510.5,351.5C 505.696,350.712 502.863,352.712 502,357.5C 500.172,359.081 498.172,360.415 496,361.5C 495.808,363.577 495.308,365.577 494.5,367.5C 492.568,366.48 490.568,366.313 488.5,367C 486.355,370.312 483.688,373.146 480.5,375.5C 479.833,378.167 479.167,380.833 478.5,383.5C 476.568,382.48 474.568,382.313 472.5,383C 470.355,386.312 467.688,389.146 464.5,391.5C 463.833,394.167 463.167,396.833 462.5,399.5C 460.298,398.22 458.132,398.22 456,399.5C 454.022,402.645 451.522,405.312 448.5,407.5C 447.833,410.167 447.167,412.833 446.5,415.5C 441.49,414.105 438.657,416.105 438,421.5C 436,422.833 434,424.167 432,425.5C 431.505,427.473 431.338,429.473 431.5,431.5C 426.368,430.523 423.202,432.523 422,437.5C 420.172,439.081 418.172,440.415 416,441.5C 415.505,443.473 415.338,445.473 415.5,447.5C 412.833,447.5 410.167,447.5 407.5,447.5C 407.833,453.167 405.167,455.833 399.5,455.5C 399.5,458.167 399.5,460.833 399.5,463.5C 396.833,463.5 394.167,463.5 391.5,463.5C 391.833,469.167 389.167,471.833 383.5,471.5C 383.5,474.167 383.5,476.833 383.5,479.5C 380.833,479.5 378.167,479.5 375.5,479.5C 375.833,485.167 373.167,487.833 367.5,487.5C 367.5,490.167 367.5,492.833 367.5,495.5C 364.833,495.5 362.167,495.5 359.5,495.5C 359.833,501.167 357.167,503.833 351.5,503.5C 351.5,505.833 351.5,508.167 351.5,510.5C 335.5,510.5 319.5,510.5 303.5,510.5C 303.5,508.167 303.5,505.833 303.5,503.5C 308.207,503.469 311.207,501.135 312.5,496.5C 314.743,495.526 317.076,495.192 319.5,495.5C 319.5,492.833 319.5,490.167 319.5,487.5C 325.167,487.833 327.833,485.167 327.5,479.5C 330.167,479.5 332.833,479.5 335.5,479.5C 335.338,477.473 335.505,475.473 336,473.5C 338,472.167 340,470.833 342,469.5C 342.914,467.336 344.081,465.336 345.5,463.5C 347.167,464.167 348.833,464.833 350.5,465.5C 351.318,462.893 351.818,460.226 352,457.5C 354,456.167 356,454.833 358,453.5C 358.914,451.336 360.081,449.336 361.5,447.5C 363.167,448.167 364.833,448.833 366.5,449.5C 367.318,446.893 367.818,444.226 368,441.5C 370,440.167 372,438.833 374,437.5C 374.914,435.336 376.081,433.336 377.5,431.5C 379.167,432.167 380.833,432.833 382.5,433.5C 381.986,427.784 384.319,423.95 389.5,422C 386.639,420.754 383.639,419.754 380.5,419C 381.448,418.517 382.448,418.351 383.5,418.5C 383.281,417.325 383.614,416.325 384.5,415.5C 387.173,414.499 389.507,412.999 391.5,411C 394.022,409.659 396.689,408.826 399.5,408.5C 399.5,407.167 399.5,405.833 399.5,404.5C 397.801,404.66 396.134,404.494 394.5,404C 395.448,403.517 396.448,403.351 397.5,403.5C 397.36,401.876 398.027,400.71 399.5,400C 399.167,399.667 398.833,399.333 398.5,399C 401.562,397.939 404.062,396.106 406,393.5C 406.47,392.423 406.303,391.423 405.5,390.5C 406.833,387.5 408.167,384.5 409.5,381.5C 410.5,381.5 411.5,381.5 412.5,381.5C 412.5,380.5 412.5,379.5 412.5,378.5C 413.165,380.369 413.831,382.369 414.5,384.5C 415.092,376.113 415.925,367.779 417,359.5C 417.333,365.5 417.667,371.5 418,377.5C 418.833,378.5 419.667,379.5 420.5,380.5C 421.298,380.043 421.631,379.376 421.5,378.5C 422.41,376.981 423.243,375.315 424,373.5C 424.667,374.167 425.333,374.833 426,375.5C 426.667,373.5 427.333,371.5 428,369.5C 429.333,372.167 430.667,374.833 432,377.5C 436.184,375.815 439.018,372.815 440.5,368.5C 442.743,367.526 445.076,367.192 447.5,367.5C 447.338,365.473 447.505,363.473 448,361.5C 452.184,359.815 455.018,356.815 456.5,352.5C 458.743,351.526 461.076,351.192 463.5,351.5C 463.338,349.473 463.505,347.473 464,345.5C 468.184,343.815 471.018,340.815 472.5,336.5C 474.743,335.526 477.076,335.192 479.5,335.5C 479.338,333.473 479.505,331.473 480,329.5C 484.184,327.815 487.018,324.815 488.5,320.5C 490.743,319.526 493.076,319.192 495.5,319.5C 495.338,317.473 495.505,315.473 496,313.5C 500.184,311.815 503.018,308.815 504.5,304.5C 506.396,303.534 508.396,303.201 510.5,303.5 Z"/></g>
<g><path style="opacity:1" fill="#2fe3de" d="M 85.5,313.5 C 86.4614,315.265 86.7947,317.265 86.5,319.5C 87.8333,319.5 89.1667,319.5 90.5,319.5C 91.1667,323.5 91.8333,323.5 92.5,319.5C 93.5,319.5 94.5,319.5 95.5,319.5C 95.5,320.833 95.5,322.167 95.5,323.5C 95.7138,330.271 95.0471,336.938 93.5,343.5C 93.8333,344.167 94.1667,344.833 94.5,345.5C 93.0944,351.471 91.7611,357.471 90.5,363.5C 90.9408,365.145 91.2741,366.811 91.5,368.5C 89.8004,376.608 87.9671,384.608 86,392.5C 84.5557,390.845 82.7224,390.178 80.5,390.5C 80.0348,394.062 78.8681,397.395 77,400.5C 71.942,404.618 69.6087,409.951 70,416.5C 67.2628,415.39 64.4294,415.223 61.5,416C 55.9233,420.05 53.4233,425.55 54,432.5C 51.6178,431.446 49.1178,430.779 46.5,430.5C 46.5,432.5 46.5,434.5 46.5,436.5C 38.3397,436.818 35.673,440.818 38.5,448.5C 35.9963,447.361 33.3297,446.694 30.5,446.5C 30.5,448.5 30.5,450.5 30.5,452.5C 23.242,452.408 20.5753,455.741 22.5,462.5C 19.5535,463.321 16.5535,463.821 13.5,464C 8.88683,467.775 5.22017,472.275 2.5,477.5C 1.58317,476.873 0.583168,476.539 -0.5,476.5C -0.5,454.833 -0.5,433.167 -0.5,411.5C 0.482236,412.141 1.48224,412.807 2.5,413.5C 3.354,412.478 4.354,411.645 5.5,411C 4.36213,409.266 3.86213,407.432 4,405.5C 5.51228,403.043 6.84561,403.043 8,405.5C 31.1691,382.331 54.3358,359.164 77.5,336C 75.006,333.607 75.6727,332.44 79.5,332.5C 79.3601,330.876 80.0267,329.71 81.5,329C 80.0745,327.286 80.4078,325.953 82.5,325C 81.1667,323.667 81.1667,322.333 82.5,321C 79.8333,320 79.8333,319 82.5,318C 81.2888,317.107 81.2888,316.274 82.5,315.5C 84.2527,317.641 85.2527,316.974 85.5,313.5 Z"/></g>
<g><path style="opacity:1" fill="#dafdfc" d="M 236.5,324.5 C 246.473,325.366 256.473,325.699 266.5,325.5C 262.104,327.033 257.437,327.7 252.5,327.5C 246.752,327.964 241.419,326.964 236.5,324.5 Z"/></g>
<g><path style="opacity:1" fill="#10cde3" d="M 510.5,351.5 C 510.5,363.167 510.5,374.833 510.5,386.5C 492.587,403.579 475.254,421.079 458.5,439C 457.175,438.852 456.008,439.018 455,439.5C 454.023,442.102 452.856,444.602 451.5,447C 449.925,446.621 448.425,446.788 447,447.5C 446.023,450.102 444.856,452.602 443.5,455C 441.925,454.621 440.425,454.788 439,455.5C 438.023,458.102 436.856,460.602 435.5,463C 433.925,462.621 432.425,462.788 431,463.5C 430.023,466.102 428.856,468.602 427.5,471C 425.925,470.621 424.425,470.788 423,471.5C 422.023,474.102 420.856,476.602 419.5,479C 417.893,478.981 416.226,478.815 414.5,478.5C 413.841,481.455 413.508,484.455 413.5,487.5C 410.833,487.5 408.167,487.5 405.5,487.5C 405.5,490.167 405.5,492.833 405.5,495.5C 400.939,494.58 398.105,496.246 397,500.5C 395.757,502.833 394.091,503.5 392,502.5C 390.757,505.576 388.923,508.243 386.5,510.5C 374.833,510.5 363.167,510.5 351.5,510.5C 351.5,508.167 351.5,505.833 351.5,503.5C 357.167,503.833 359.833,501.167 359.5,495.5C 362.167,495.5 364.833,495.5 367.5,495.5C 367.5,492.833 367.5,490.167 367.5,487.5C 373.167,487.833 375.833,485.167 375.5,479.5C 378.167,479.5 380.833,479.5 383.5,479.5C 383.5,476.833 383.5,474.167 383.5,471.5C 389.167,471.833 391.833,469.167 391.5,463.5C 394.167,463.5 396.833,463.5 399.5,463.5C 399.5,460.833 399.5,458.167 399.5,455.5C 405.167,455.833 407.833,453.167 407.5,447.5C 410.167,447.5 412.833,447.5 415.5,447.5C 415.338,445.473 415.505,443.473 416,441.5C 418.172,440.415 420.172,439.081 422,437.5C 423.202,432.523 426.368,430.523 431.5,431.5C 431.338,429.473 431.505,427.473 432,425.5C 434,424.167 436,422.833 438,421.5C 438.657,416.105 441.49,414.105 446.5,415.5C 447.167,412.833 447.833,410.167 448.5,407.5C 451.522,405.312 454.022,402.645 456,399.5C 458.132,398.22 460.298,398.22 462.5,399.5C 463.167,396.833 463.833,394.167 464.5,391.5C 467.688,389.146 470.355,386.312 472.5,383C 474.568,382.313 476.568,382.48 478.5,383.5C 479.167,380.833 479.833,378.167 480.5,375.5C 483.688,373.146 486.355,370.312 488.5,367C 490.568,366.313 492.568,366.48 494.5,367.5C 495.308,365.577 495.808,363.577 496,361.5C 498.172,360.415 500.172,359.081 502,357.5C 502.863,352.712 505.696,350.712 510.5,351.5 Z"/></g>
<g><path style="opacity:1" fill="#2adedf" d="M 110.5,394.5 C 111.791,394.263 112.791,394.596 113.5,395.5C 112.661,396.641 111.994,397.974 111.5,399.5C 113.817,401.316 115.984,403.316 118,405.5C 118.414,405.043 118.914,404.709 119.5,404.5C 121.51,406.171 123.843,406.838 126.5,406.5C 126.5,405.5 126.5,404.5 126.5,403.5C 130.247,403.392 133.914,403.892 137.5,405C 138.833,406 138.833,407 137.5,408C 141.473,409.229 145.473,410.395 149.5,411.5C 145.759,412.728 142.092,414.062 138.5,415.5C 137.572,416.768 137.405,418.101 138,419.5C 140.456,420.574 142.956,421.574 145.5,422.5C 142.327,426.03 138.66,428.697 134.5,430.5C 133.172,433.356 132.172,436.356 131.5,439.5C 130.167,439.5 128.833,439.5 127.5,439.5C 127.5,440.833 127.5,442.167 127.5,443.5C 126.167,443.5 124.833,443.5 123.5,443.5C 123.5,444.833 123.5,446.167 123.5,447.5C 122.167,447.5 120.833,447.5 119.5,447.5C 119.5,448.833 119.5,450.167 119.5,451.5C 118.167,451.5 116.833,451.5 115.5,451.5C 115.5,452.833 115.5,454.167 115.5,455.5C 114.167,455.5 112.833,455.5 111.5,455.5C 111.5,456.833 111.5,458.167 111.5,459.5C 110.167,459.5 108.833,459.5 107.5,459.5C 107.5,460.833 107.5,462.167 107.5,463.5C 106.167,463.5 104.833,463.5 103.5,463.5C 103.5,464.833 103.5,466.167 103.5,467.5C 102.167,467.5 100.833,467.5 99.5,467.5C 99.5,468.833 99.5,470.167 99.5,471.5C 98.1667,471.5 96.8333,471.5 95.5,471.5C 95.5,472.833 95.5,474.167 95.5,475.5C 94.1667,475.5 92.8333,475.5 91.5,475.5C 91.5,476.833 91.5,478.167 91.5,479.5C 87.2493,479.291 84.5826,481.291 83.5,485.5C 82.1667,486.833 80.8333,486.833 79.5,485.5C 78.5147,487.772 77.6813,490.105 77,492.5C 75.4773,494.62 73.6439,494.953 71.5,493.5C 70.5147,495.772 69.6813,498.105 69,500.5C 67.5557,502.155 65.7224,502.822 63.5,502.5C 61.8333,505.167 60.1667,507.833 58.5,510.5C 38.8333,510.5 19.1667,510.5 -0.5,510.5C -0.5,509.5 -0.5,508.5 -0.5,507.5C 0.930472,507.579 2.26381,507.246 3.5,506.5C 32.9014,477.266 62.068,447.932 91,418.5C 91.4966,416.19 91.6633,413.857 91.5,411.5C 89.8333,411.5 88.1667,411.5 86.5,411.5C 86.5,408.5 86.5,405.5 86.5,402.5C 88.9032,402.607 90.7365,401.607 92,399.5C 91.5397,391.95 93.2064,384.95 97,378.5C 98.1306,380.725 98.9639,383.058 99.5,385.5C 99.5704,387.666 98.9038,387.999 97.5,386.5C 96.4173,387.365 96.2506,388.365 97,389.5C 98.8886,390.097 100.722,390.431 102.5,390.5C 100.744,392.191 100.244,394.191 101,396.5C 103.873,399.1 106.706,399.1 109.5,396.5C 111.7,397.456 112.033,396.79 110.5,394.5 Z"/></g>
<g><path style="opacity:1" fill="#0bcae4" d="M 510.5,386.5 C 510.5,409.5 510.5,432.5 510.5,455.5C 509.127,455.343 507.793,455.51 506.5,456C 504.375,459.082 502.375,462.249 500.5,465.5C 498.929,466.309 497.262,466.643 495.5,466.5C 495.5,468.167 495.5,469.833 495.5,471.5C 489.5,470.833 486.833,473.5 487.5,479.5C 484.833,479.5 482.167,479.5 479.5,479.5C 479.5,482.167 479.5,484.833 479.5,487.5C 473.5,486.833 470.833,489.5 471.5,495.5C 468.833,495.5 466.167,495.5 463.5,495.5C 463.5,499.5 463.5,503.5 463.5,507.5C 458.167,507.5 452.833,507.5 447.5,507.5C 447.5,508.5 447.5,509.5 447.5,510.5C 427.167,510.5 406.833,510.5 386.5,510.5C 388.923,508.243 390.757,505.576 392,502.5C 394.091,503.5 395.757,502.833 397,500.5C 398.105,496.246 400.939,494.58 405.5,495.5C 405.5,492.833 405.5,490.167 405.5,487.5C 408.167,487.5 410.833,487.5 413.5,487.5C 413.508,484.455 413.841,481.455 414.5,478.5C 416.226,478.815 417.893,478.981 419.5,479C 420.856,476.602 422.023,474.102 423,471.5C 424.425,470.788 425.925,470.621 427.5,471C 428.856,468.602 430.023,466.102 431,463.5C 432.425,462.788 433.925,462.621 435.5,463C 436.856,460.602 438.023,458.102 439,455.5C 440.425,454.788 441.925,454.621 443.5,455C 444.856,452.602 446.023,450.102 447,447.5C 448.425,446.788 449.925,446.621 451.5,447C 452.856,444.602 454.023,442.102 455,439.5C 456.008,439.018 457.175,438.852 458.5,439C 475.254,421.079 492.587,403.579 510.5,386.5 Z"/></g>
<g><path style="opacity:1" fill="#25dbdf" d="M 113.5,395.5 C 113.5,396.167 113.833,396.5 114.5,396.5C 114.918,397.222 115.584,397.722 116.5,398C 128.495,398.5 140.495,398.667 152.5,398.5C 156.647,399.325 160.981,399.825 165.5,400C 162.638,404.936 158.305,407.603 152.5,408C 152.833,408.333 153.167,408.667 153.5,409C 158.53,409.448 163.53,410.114 168.5,411C 169.376,412.585 170.709,413.585 172.5,414C 178.539,414.337 184.539,415.003 190.5,416C 189.5,416.833 188.5,417.667 187.5,418.5C 187.709,419.086 188.043,419.586 188.5,420C 193.156,420.665 197.823,421.165 202.5,421.5C 202.5,422.5 202.5,423.5 202.5,424.5C 201.325,424.281 200.325,424.614 199.5,425.5C 198.652,427.409 198.318,429.409 198.5,431.5C 196.167,431.5 193.833,431.5 191.5,431.5C 191.657,432.873 191.49,434.207 191,435.5C 186.748,438.571 183.915,442.571 182.5,447.5C 180.167,447.5 177.833,447.5 175.5,447.5C 175.657,448.873 175.49,450.207 175,451.5C 170.748,454.571 167.915,458.571 166.5,463.5C 164.167,463.5 161.833,463.5 159.5,463.5C 159.657,464.873 159.49,466.207 159,467.5C 154.748,470.571 151.915,474.571 150.5,479.5C 148.167,479.5 145.833,479.5 143.5,479.5C 143.657,480.873 143.49,482.207 143,483.5C 138.748,486.571 135.915,490.571 134.5,495.5C 132.167,495.5 129.833,495.5 127.5,495.5C 127.657,496.873 127.49,498.207 127,499.5C 123.193,502.467 120.359,506.133 118.5,510.5C 98.5,510.5 78.5,510.5 58.5,510.5C 60.1667,507.833 61.8333,505.167 63.5,502.5C 65.7224,502.822 67.5557,502.155 69,500.5C 69.6813,498.105 70.5147,495.772 71.5,493.5C 73.6439,494.953 75.4773,494.62 77,492.5C 77.6813,490.105 78.5147,487.772 79.5,485.5C 80.8333,486.833 82.1667,486.833 83.5,485.5C 84.5826,481.291 87.2493,479.291 91.5,479.5C 91.5,478.167 91.5,476.833 91.5,475.5C 92.8333,475.5 94.1667,475.5 95.5,475.5C 95.5,474.167 95.5,472.833 95.5,471.5C 96.8333,471.5 98.1667,471.5 99.5,471.5C 99.5,470.167 99.5,468.833 99.5,467.5C 100.833,467.5 102.167,467.5 103.5,467.5C 103.5,466.167 103.5,464.833 103.5,463.5C 104.833,463.5 106.167,463.5 107.5,463.5C 107.5,462.167 107.5,460.833 107.5,459.5C 108.833,459.5 110.167,459.5 111.5,459.5C 111.5,458.167 111.5,456.833 111.5,455.5C 112.833,455.5 114.167,455.5 115.5,455.5C 115.5,454.167 115.5,452.833 115.5,451.5C 116.833,451.5 118.167,451.5 119.5,451.5C 119.5,450.167 119.5,448.833 119.5,447.5C 120.833,447.5 122.167,447.5 123.5,447.5C 123.5,446.167 123.5,444.833 123.5,443.5C 124.833,443.5 126.167,443.5 127.5,443.5C 127.5,442.167 127.5,440.833 127.5,439.5C 128.833,439.5 130.167,439.5 131.5,439.5C 132.172,436.356 133.172,433.356 134.5,430.5C 138.66,428.697 142.327,426.03 145.5,422.5C 142.956,421.574 140.456,420.574 138,419.5C 137.405,418.101 137.572,416.768 138.5,415.5C 142.092,414.062 145.759,412.728 149.5,411.5C 145.473,410.395 141.473,409.229 137.5,408C 138.833,407 138.833,406 137.5,405C 133.914,403.892 130.247,403.392 126.5,403.5C 126.5,404.5 126.5,405.5 126.5,406.5C 123.843,406.838 121.51,406.171 119.5,404.5C 118.914,404.709 118.414,405.043 118,405.5C 115.984,403.316 113.817,401.316 111.5,399.5C 111.994,397.974 112.661,396.641 113.5,395.5 Z"/></g>
<g><path style="opacity:1" fill="#b1e8eb" d="M 396.5,394.5 C 378.197,396.487 359.53,397.154 340.5,396.5C 265.167,396.5 189.833,396.5 114.5,396.5C 113.833,396.5 113.5,396.167 113.5,395.5C 207.904,395.831 302.237,395.497 396.5,394.5 Z"/></g>
<g><path style="opacity:1" fill="#61d9e0" d="M 114.5,396.5 C 189.833,396.5 265.167,396.5 340.5,396.5C 357.662,397.332 374.995,397.832 392.5,398C 373.176,398.919 353.843,399.419 334.5,399.5C 309.339,398.502 284.005,398.169 258.5,398.5C 223.167,398.5 187.833,398.5 152.5,398.5C 140.495,398.667 128.495,398.5 116.5,398C 115.584,397.722 114.918,397.222 114.5,396.5 Z"/></g>
<g><path style="opacity:1" fill="#17d2e1" d="M 405.5,390.5 C 406.303,391.423 406.47,392.423 406,393.5C 404.062,396.106 401.562,397.939 398.5,399C 398.833,399.333 399.167,399.667 399.5,400C 398.027,400.71 397.36,401.876 397.5,403.5C 396.448,403.351 395.448,403.517 394.5,404C 396.134,404.494 397.801,404.66 399.5,404.5C 399.5,405.833 399.5,407.167 399.5,408.5C 396.689,408.826 394.022,409.659 391.5,411C 389.507,412.999 387.173,414.499 384.5,415.5C 383.614,416.325 383.281,417.325 383.5,418.5C 382.448,418.351 381.448,418.517 380.5,419C 383.639,419.754 386.639,420.754 389.5,422C 384.319,423.95 381.986,427.784 382.5,433.5C 380.833,432.833 379.167,432.167 377.5,431.5C 376.081,433.336 374.914,435.336 374,437.5C 372,438.833 370,440.167 368,441.5C 367.818,444.226 367.318,446.893 366.5,449.5C 364.833,448.833 363.167,448.167 361.5,447.5C 360.081,449.336 358.914,451.336 358,453.5C 356,454.833 354,456.167 352,457.5C 351.818,460.226 351.318,462.893 350.5,465.5C 348.833,464.833 347.167,464.167 345.5,463.5C 344.081,465.336 342.914,467.336 342,469.5C 340,470.833 338,472.167 336,473.5C 335.505,475.473 335.338,477.473 335.5,479.5C 332.833,479.5 330.167,479.5 327.5,479.5C 327.833,485.167 325.167,487.833 319.5,487.5C 319.5,490.167 319.5,492.833 319.5,495.5C 317.076,495.192 314.743,495.526 312.5,496.5C 311.207,501.135 308.207,503.469 303.5,503.5C 303.5,505.833 303.5,508.167 303.5,510.5C 279.167,510.5 254.833,510.5 230.5,510.5C 231.694,506.468 234.194,503.468 238,501.5C 239.128,499.655 239.628,497.655 239.5,495.5C 243.981,496.12 247.648,494.787 250.5,491.5C 249.624,490.749 248.624,490.249 247.5,490C 249.667,488.5 251.833,487 254,485.5C 255.128,483.655 255.628,481.655 255.5,479.5C 257.833,479.5 260.167,479.5 262.5,479.5C 262.481,476.341 263.648,473.674 266,471.5C 266.442,473.679 267.442,474.345 269,473.5C 271.006,470.464 271.84,467.131 271.5,463.5C 273.833,463.5 276.167,463.5 278.5,463.5C 278.481,460.341 279.648,457.674 282,455.5C 282.419,456.672 283.085,457.672 284,458.5C 290.279,453.956 294.612,447.956 297,440.5C 297.333,440.167 297.667,439.833 298,439.5C 298.419,440.672 299.085,441.672 300,442.5C 306.558,437.037 311.391,430.37 314.5,422.5C 310.657,420.896 306.657,419.729 302.5,419C 307.213,415.644 312.213,412.811 317.5,410.5C 315.5,409.833 313.5,409.167 311.5,408.5C 314.086,407.52 316.753,407.187 319.5,407.5C 319.67,406.178 319.337,405.011 318.5,404C 324.631,402.731 329.965,401.231 334.5,399.5C 353.843,399.419 373.176,398.919 392.5,398C 374.995,397.832 357.662,397.332 340.5,396.5C 359.53,397.154 378.197,396.487 396.5,394.5C 399.878,393.977 402.878,392.644 405.5,390.5 Z"/></g>
<g><path style="opacity:1" fill="#22d8df" d="M 152.5,398.5 C 187.833,398.5 223.167,398.5 258.5,398.5C 253.066,399.956 247.4,400.79 241.5,401C 247.522,403.121 253.522,405.455 259.5,408C 266.645,407.53 273.645,408.53 280.5,411C 275.372,414.43 269.705,415.93 263.5,415.5C 263.431,419.646 261.265,421.98 257,422.5C 252.367,421.84 247.867,420.673 243.5,419C 244.5,418.167 245.5,417.333 246.5,416.5C 243.832,415.262 241.166,415.262 238.5,416.5C 234.552,420.776 230.219,424.776 225.5,428.5C 224.104,430.972 223.27,433.638 223,436.5C 218.459,438.871 215.626,442.538 214.5,447.5C 212.167,447.5 209.833,447.5 207.5,447.5C 207.66,449.199 207.494,450.866 207,452.5C 202.459,454.871 199.626,458.538 198.5,463.5C 196.167,463.5 193.833,463.5 191.5,463.5C 191.66,465.199 191.494,466.866 191,468.5C 186.459,470.871 183.626,474.538 182.5,479.5C 180.167,479.5 177.833,479.5 175.5,479.5C 175.66,481.199 175.494,482.866 175,484.5C 170.459,486.871 167.626,490.538 166.5,495.5C 164.167,495.5 161.833,495.5 159.5,495.5C 160.288,499.71 158.621,502.377 154.5,503.5C 152.384,505.4 151.051,507.733 150.5,510.5C 139.833,510.5 129.167,510.5 118.5,510.5C 120.359,506.133 123.193,502.467 127,499.5C 127.49,498.207 127.657,496.873 127.5,495.5C 129.833,495.5 132.167,495.5 134.5,495.5C 135.915,490.571 138.748,486.571 143,483.5C 143.49,482.207 143.657,480.873 143.5,479.5C 145.833,479.5 148.167,479.5 150.5,479.5C 151.915,474.571 154.748,470.571 159,467.5C 159.49,466.207 159.657,464.873 159.5,463.5C 161.833,463.5 164.167,463.5 166.5,463.5C 167.915,458.571 170.748,454.571 175,451.5C 175.49,450.207 175.657,448.873 175.5,447.5C 177.833,447.5 180.167,447.5 182.5,447.5C 183.915,442.571 186.748,438.571 191,435.5C 191.49,434.207 191.657,432.873 191.5,431.5C 193.833,431.5 196.167,431.5 198.5,431.5C 198.318,429.409 198.652,427.409 199.5,425.5C 200.325,424.614 201.325,424.281 202.5,424.5C 202.5,423.5 202.5,422.5 202.5,421.5C 197.823,421.165 193.156,420.665 188.5,420C 188.043,419.586 187.709,419.086 187.5,418.5C 188.5,417.667 189.5,416.833 190.5,416C 184.539,415.003 178.539,414.337 172.5,414C 170.709,413.585 169.376,412.585 168.5,411C 163.53,410.114 158.53,409.448 153.5,409C 153.167,408.667 152.833,408.333 152.5,408C 158.305,407.603 162.638,404.936 165.5,400C 160.981,399.825 156.647,399.325 152.5,398.5 Z"/></g>
<g><path style="opacity:1" fill="#1cd6e1" d="M 258.5,398.5 C 284.005,398.169 309.339,398.502 334.5,399.5C 329.965,401.231 324.631,402.731 318.5,404C 319.337,405.011 319.67,406.178 319.5,407.5C 316.753,407.187 314.086,407.52 311.5,408.5C 313.5,409.167 315.5,409.833 317.5,410.5C 312.213,412.811 307.213,415.644 302.5,419C 306.657,419.729 310.657,420.896 314.5,422.5C 311.391,430.37 306.558,437.037 300,442.5C 299.085,441.672 298.419,440.672 298,439.5C 297.667,439.833 297.333,440.167 297,440.5C 294.612,447.956 290.279,453.956 284,458.5C 283.085,457.672 282.419,456.672 282,455.5C 279.648,457.674 278.481,460.341 278.5,463.5C 276.167,463.5 273.833,463.5 271.5,463.5C 271.84,467.131 271.006,470.464 269,473.5C 267.442,474.345 266.442,473.679 266,471.5C 263.648,473.674 262.481,476.341 262.5,479.5C 260.167,479.5 257.833,479.5 255.5,479.5C 255.628,481.655 255.128,483.655 254,485.5C 251.833,487 249.667,488.5 247.5,490C 248.624,490.249 249.624,490.749 250.5,491.5C 247.648,494.787 243.981,496.12 239.5,495.5C 239.628,497.655 239.128,499.655 238,501.5C 234.194,503.468 231.694,506.468 230.5,510.5C 203.833,510.5 177.167,510.5 150.5,510.5C 151.051,507.733 152.384,505.4 154.5,503.5C 158.621,502.377 160.288,499.71 159.5,495.5C 161.833,495.5 164.167,495.5 166.5,495.5C 167.626,490.538 170.459,486.871 175,484.5C 175.494,482.866 175.66,481.199 175.5,479.5C 177.833,479.5 180.167,479.5 182.5,479.5C 183.626,474.538 186.459,470.871 191,468.5C 191.494,466.866 191.66,465.199 191.5,463.5C 193.833,463.5 196.167,463.5 198.5,463.5C 199.626,458.538 202.459,454.871 207,452.5C 207.494,450.866 207.66,449.199 207.5,447.5C 209.833,447.5 212.167,447.5 214.5,447.5C 215.626,442.538 218.459,438.871 223,436.5C 223.27,433.638 224.104,430.972 225.5,428.5C 230.219,424.776 234.552,420.776 238.5,416.5C 241.166,415.262 243.832,415.262 246.5,416.5C 245.5,417.333 244.5,418.167 243.5,419C 247.867,420.673 252.367,421.84 257,422.5C 261.265,421.98 263.431,419.646 263.5,415.5C 269.705,415.93 275.372,414.43 280.5,411C 273.645,408.53 266.645,407.53 259.5,408C 253.522,405.455 247.522,403.121 241.5,401C 247.4,400.79 253.066,399.956 258.5,398.5 Z"/></g>
<g><path style="opacity:1" fill="#05c8e4" d="M 510.5,455.5 C 510.5,473.833 510.5,492.167 510.5,510.5C 489.5,510.5 468.5,510.5 447.5,510.5C 447.5,509.5 447.5,508.5 447.5,507.5C 452.833,507.5 458.167,507.5 463.5,507.5C 463.5,503.5 463.5,499.5 463.5,495.5C 466.167,495.5 468.833,495.5 471.5,495.5C 470.833,489.5 473.5,486.833 479.5,487.5C 479.5,484.833 479.5,482.167 479.5,479.5C 482.167,479.5 484.833,479.5 487.5,479.5C 486.833,473.5 489.5,470.833 495.5,471.5C 495.5,469.833 495.5,468.167 495.5,466.5C 497.262,466.643 498.929,466.309 500.5,465.5C 502.375,462.249 504.375,459.082 506.5,456C 507.793,455.51 509.127,455.343 510.5,455.5 Z"/></g>
<g><path style="opacity:1" fill="#84e6f0" d="M 510.5,-0.5 C 510.833,-0.5 511.167,-0.5 511.5,-0.5C 511.5,170.167 511.5,340.833 511.5,511.5C 340.833,511.5 170.167,511.5 -0.5,511.5C -0.5,511.167 -0.5,510.833 -0.5,510.5C 19.1667,510.5 38.8333,510.5 58.5,510.5C 78.5,510.5 98.5,510.5 118.5,510.5C 129.167,510.5 139.833,510.5 150.5,510.5C 177.167,510.5 203.833,510.5 230.5,510.5C 254.833,510.5 279.167,510.5 303.5,510.5C 319.5,510.5 335.5,510.5 351.5,510.5C 363.167,510.5 374.833,510.5 386.5,510.5C 406.833,510.5 427.167,510.5 447.5,510.5C 468.5,510.5 489.5,510.5 510.5,510.5C 510.5,492.167 510.5,473.833 510.5,455.5C 510.5,432.5 510.5,409.5 510.5,386.5C 510.5,374.833 510.5,363.167 510.5,351.5C 510.5,335.5 510.5,319.5 510.5,303.5C 510.5,278.833 510.5,254.167 510.5,229.5C 510.5,202.833 510.5,176.167 510.5,149.5C 510.5,138.833 510.5,128.167 510.5,117.5C 510.5,97.5 510.5,77.5 510.5,57.5C 510.5,40.1667 510.5,22.8333 510.5,5.5C 510.5,3.5 510.5,1.5 510.5,-0.5 Z"/></g>
</svg>
